<svg fill="#ffffff" className="z-50 w-[50px] min-[100px]:!flex min-[1009px]:!hidden" onClick={handleClick} id="hamburger" viewBox="-9.6 -9.6 51.20 51.20" enableBackground="new 0 0 32 32" stroke="#ffffff" transform="matrix(1, 0, 0, 1, 0, 0)rotate(0)" strokeWidth="0.00032">
  <g strokeWidth="0">
    <path transform="translate(-9.6, -9.6), scale(1.6)" d="M16,27.892718859016895C17.84657189592713,27.896409528691912,19.665942243971326,28.689219334397556,21.465756199615136,28.27628942153055C23.365242985022423,27.84049164902706,25.445152613891857,27.099319310624935,26.526083121893087,25.477727813567768C27.62399108663766,23.830667057115228,26.666498273189216,21.54605300875518,27.21905909300154,19.645293272517087C27.751358254893432,17.814231825016996,29.348862493300373,16.434356015300015,29.69989984794629,14.56008250326525C30.089197326157436,12.481528918991971,30.222993091316912,10.219098422073033,29.34481496440213,8.295367488016689C28.458177545908978,6.353105688307066,26.50646361555303,5.169879586921743,24.81722561296906,3.864130077594025C23.095029093293988,2.532904248497248,21.45902667811708,0.34319162881335,19.28974151523842,0.5229830150081014C16.905364965233304,0.7206012776835368,15.924521095941842,4.157473690645705,13.617740187409503,4.792348757086236C11.50304672053326,5.37435728261136,9.285575306531179,3.251764455195871,7.177293201150176,3.8565858724449953C5.077742799128233,4.458902349208619,3.2533688987467224,6.120768430562269,2.2408340237804616,8.0561418198049C1.231237511421824,9.985898781466277,1.0113785692572035,12.395565681656679,1.6151763875713208,14.488094114784026C2.201703378255612,16.520768575633106,4.382893686847222,17.61987226730676,5.515964292559245,19.40646969735659C6.365376808390047,20.745802136293033,6.67052785803314,22.315876536763305,7.4540999579405245,23.694762960035426C8.371222001933397,25.308663116887388,8.87784552159616,27.43602281891053,10.543962676677745,28.254460467975683C12.197984300910443,29.06695649534757,14.15719676513651,27.88903572161459,16,27.892718859016895" fill="#000000" strokeWidth="0"></path>
  </g>
  <g strokeLinecap="round" strokeLinejoin="round"></g>
  <g>
    <path d="M26,16c0,1.104-0.896,2-2,2H8c-1.104,0-2-0.896-2-2s0.896-2,2-2h16C25.104,14,26,14.896,26,16z" id="top-line"></path>
    <path d="M26,8c0,1.104-0.896,2-2,2H8c-1.104,0-2-0.896-2-2s0.896-2,2-2h16C25.104,6,26,6.896,26,8z" id="middle-line"></path>
    <path d="M26,24c0,1.104-0.896,2-2,2H8c-1.104,0-2-0.896-2-2s0.896-2,2-2h16C25.104,22,26,22.896,26,24z" id="bottom-line"></path>
  </g>
</svg>
